<svg width="806" height="306" viewBox="0 0 806 306" fill="none" xmlns="http://www.w3.org/2000/svg">
<path d="M413.245 143.076C406.895 143.076 403.72 140.349 403.72 134.894C403.72 133.103 403.964 131.067 404.453 128.788C405.022 126.427 405.796 123.414 406.773 119.751C407.913 115.924 408.768 112.668 409.337 109.981C409.907 107.294 410.192 104.892 410.192 102.776C410.192 97.2395 407.75 94.4713 402.865 94.4713C401.562 94.4713 400.219 94.6342 398.835 94.9598L389.065 141H371.48L388.088 63.3301L406.162 60.8877L400.178 89.098H401.155C404.33 89.098 407.261 87.9989 409.948 85.8006C412.635 83.6024 414.711 80.875 416.176 77.6184C417.723 74.2804 418.497 71.0238 418.497 67.8486C418.497 64.1036 417.357 61.0505 415.077 58.6895C412.879 56.247 409.541 55.0258 405.063 55.0258C398.469 55.0258 392.688 56.2063 387.722 58.5673C382.755 60.9284 378.888 64.3478 376.12 68.8256C373.433 73.3034 372.09 78.5954 372.09 84.7015C372.09 87.7139 372.375 89.8307 372.945 91.0519C373.515 92.1917 373.8 92.843 373.8 93.0059C369.403 93.0059 366.106 92.1103 363.908 90.3192C361.791 88.4466 360.733 85.3936 360.733 81.16C360.733 75.9494 362.85 70.9017 367.083 66.0168C371.398 61.0505 376.894 57.0612 383.57 54.0488C390.246 50.955 396.922 49.4081 403.598 49.4081C409.704 49.4081 414.833 50.3037 418.985 52.0948C423.137 53.886 426.231 56.2877 428.266 59.3001C430.302 62.231 431.32 65.4469 431.32 68.9477C431.32 72.7742 430.139 76.6008 427.778 80.4273C425.417 84.2538 422.201 87.3882 418.13 89.8307C421.224 90.7263 423.382 92.2324 424.603 94.3492C425.905 96.3846 426.557 98.9492 426.557 102.043C426.557 104.404 426.272 106.928 425.702 109.615C425.132 112.22 424.318 115.476 423.259 119.384C422.608 121.908 421.998 124.391 421.428 126.834C420.858 129.276 420.573 131.312 420.573 132.94C420.573 134.812 420.98 136.481 421.794 137.947C422.69 139.412 423.87 140.43 425.336 141C420.369 142.384 416.339 143.076 413.245 143.076ZM450.809 141.733C444.784 141.733 440.102 140.186 436.764 137.092C433.426 133.917 431.757 128.991 431.757 122.315C431.757 116.698 432.857 110.51 435.055 103.753C437.253 96.9952 440.835 91.174 445.802 86.2891C450.768 81.3228 457.077 78.8397 464.731 78.8397C473.686 78.8397 478.164 82.7476 478.164 90.5634C478.164 95.1227 476.861 99.3155 474.256 103.142C471.651 106.969 468.191 110.062 463.876 112.423C459.561 114.703 454.961 116.006 450.076 116.331C449.913 118.774 449.832 120.402 449.832 121.216C449.832 125.205 450.524 127.933 451.908 129.398C453.292 130.782 455.531 131.474 458.624 131.474C463.021 131.474 466.766 130.457 469.86 128.421C473.035 126.386 476.495 123.292 480.24 119.14H484.392C475.355 134.202 464.161 141.733 450.809 141.733ZM451.053 110.469C454.065 110.307 456.915 109.248 459.601 107.294C462.369 105.34 464.568 102.857 466.196 99.8447C467.906 96.8324 468.761 93.6572 468.761 90.3192C468.761 86.9812 467.743 85.3122 465.707 85.3122C462.777 85.3122 459.886 87.8767 457.037 93.0059C454.269 98.135 452.274 103.956 451.053 110.469ZM469.223 171.531C465.397 171.531 462.059 170.269 459.209 167.745C456.278 165.302 454.813 162.168 454.813 158.341C454.813 154.841 455.708 151.95 457.5 149.671C459.291 147.391 461.611 145.559 464.46 144.175C467.31 142.873 471.096 141.488 475.818 140.023L490.595 70.2911C492.223 62.4753 495.073 57.0612 499.143 54.0488C503.295 51.0365 507.855 49.5303 512.821 49.5303C516.647 49.5303 519.986 50.7922 522.835 53.3161C525.766 55.7585 527.231 58.893 527.231 62.7195C527.231 64.592 527.109 66.2611 526.865 67.7265H521.125C521.288 65.9354 521.37 64.8363 521.37 64.4292C521.37 63.1266 520.922 62.1089 520.026 61.3762C519.131 60.6434 518.032 60.2771 516.729 60.2771C515.019 60.2771 513.35 61.0505 511.722 62.5974C510.094 64.0628 508.913 66.6274 508.18 70.2911L506.104 79.9388H538.711L529.918 121.46C529.674 122.682 529.552 123.821 529.552 124.88C529.552 128.218 530.773 129.887 533.215 129.887C535.495 129.887 537.449 128.951 539.077 127.078C540.706 125.124 542.008 122.478 542.985 119.14L551.29 79.9388H568.875L560.082 121.46C559.757 122.682 559.594 123.984 559.594 125.368C559.594 126.997 559.96 128.177 560.693 128.91C561.507 129.561 562.81 129.887 564.601 129.887C566.881 129.887 568.834 128.91 570.463 126.956C572.173 125.002 573.516 122.397 574.493 119.14H579.622C576.61 127.933 572.865 133.917 568.387 137.092C563.99 140.186 559.553 141.733 555.075 141.733C551.575 141.733 548.766 140.756 546.649 138.802C544.614 136.848 543.392 133.958 542.985 130.131C540.217 134.609 537.286 137.662 534.192 139.29C531.18 140.919 528.086 141.733 524.911 141.733C521.003 141.733 517.828 140.512 515.386 138.069C513.025 135.627 511.844 131.963 511.844 127.078C511.844 125.043 512.17 122.397 512.821 119.14L520.026 84.8237H505.127L491.083 150.77C489.455 158.667 486.646 164.081 482.657 167.012C478.667 170.024 474.19 171.531 469.223 171.531ZM466.414 160.662C469.671 160.662 471.991 157.487 473.375 151.136L474.963 144.053C470.648 145.519 467.351 147.188 465.071 149.06C462.71 151.014 461.53 153.538 461.53 156.632C461.53 157.609 462.018 158.504 462.995 159.318C463.972 160.214 465.112 160.662 466.414 160.662ZM596.165 171.531C592.257 171.531 589 170.513 586.395 168.478C583.79 166.442 582.487 163.511 582.487 159.685C582.487 155.044 584.36 151.299 588.105 148.449C591.85 145.681 596.613 143.361 602.393 141.488L603.859 135.016C599.706 139.494 594.821 141.733 589.204 141.733C584.563 141.733 580.696 140.145 577.602 136.97C574.508 133.795 572.962 128.828 572.962 122.071C572.962 116.046 574.142 109.737 576.503 103.142C578.946 96.466 582.528 90.8484 587.25 86.2891C592.053 81.6485 597.752 79.3282 604.347 79.3282C607.685 79.3282 610.168 79.8981 611.796 81.0379C613.425 82.1777 614.239 83.6839 614.239 85.5564V86.2891L615.582 79.9388H633.168L621.078 136.604C624.986 135.301 628.12 133.347 630.481 130.742C632.842 128.136 634.837 124.269 636.465 119.14H641.594C639.396 126.386 636.425 131.719 632.679 135.138C628.934 138.476 624.701 140.756 619.979 141.977L618.147 150.77C616.519 158.667 613.71 164.081 609.72 167.012C605.731 170.024 601.213 171.531 596.165 171.531ZM597.142 129.887C599.014 129.887 600.928 129.032 602.882 127.322C604.836 125.613 606.179 123.292 606.912 120.361L613.14 91.4183C613.14 90.4413 612.733 89.4643 611.919 88.4873C611.104 87.4289 609.843 86.8997 608.133 86.8997C604.876 86.8997 601.945 88.813 599.34 92.6395C596.735 96.3846 594.699 100.944 593.234 106.317C591.768 111.609 591.036 116.291 591.036 120.361C591.036 124.432 591.606 127.037 592.745 128.177C593.967 129.317 595.432 129.887 597.142 129.887ZM593.356 162.005C594.74 162.005 596.083 161.069 597.386 159.196C598.689 157.324 599.706 154.637 600.439 151.136L601.172 147.595C593.193 150.526 589.204 153.986 589.204 157.975C589.204 159.033 589.57 159.97 590.303 160.784C591.036 161.598 592.053 162.005 593.356 162.005ZM653.664 141.733C647.721 141.733 643.081 140.186 639.742 137.092C636.404 133.917 634.735 128.991 634.735 122.315C634.735 116.698 635.835 110.51 638.033 103.753C640.231 96.9952 643.813 91.174 648.78 86.2891C653.746 81.3228 660.056 78.8397 667.709 78.8397C676.664 78.8397 681.142 82.7476 681.142 90.5634C681.142 95.1227 679.839 99.3155 677.234 103.142C674.629 106.969 671.169 110.062 666.854 112.423C662.539 114.703 657.939 116.006 653.054 116.331C652.891 118.122 652.81 119.344 652.81 119.995C652.81 126.752 655.333 130.131 660.381 130.131C662.661 130.131 665.103 129.52 667.709 128.299C670.314 127.078 672.675 125.531 674.792 123.659C672.593 135.708 665.551 141.733 653.664 141.733ZM653.909 110.469C657.002 110.388 659.893 109.37 662.579 107.416C665.348 105.462 667.546 102.979 669.174 99.9669C670.884 96.8731 671.739 93.6572 671.739 90.3192C671.739 86.9812 670.721 85.3122 668.686 85.3122C665.836 85.3122 662.986 87.9174 660.137 93.128C657.369 98.2571 655.293 104.038 653.909 110.469Z" fill="#004AAD"/>
<path d="M372.655 250.733C368.014 250.733 364.147 249.145 361.053 245.97C357.959 242.795 356.412 237.828 356.412 231.071C356.412 225.046 357.593 218.737 359.954 212.142C362.396 205.466 365.979 199.848 370.701 195.289C375.504 190.648 381.203 188.328 387.798 188.328C391.136 188.328 393.619 188.898 395.247 190.038C396.876 191.178 397.69 192.684 397.69 194.556V195.045L403.674 166.957L421.748 164.514L407.704 230.46C407.378 231.682 407.215 232.984 407.215 234.368C407.215 235.997 407.582 237.177 408.314 237.91C409.129 238.561 410.431 238.887 412.222 238.887C414.502 238.887 416.456 237.91 418.084 235.956C419.794 234.002 421.137 231.397 422.114 228.14H427.243C422.277 242.713 414.095 250 402.697 250C399.359 250 396.631 249.104 394.515 247.313C392.479 245.522 391.217 242.917 390.729 239.497C388.612 242.754 386.047 245.441 383.035 247.558C380.104 249.674 376.644 250.733 372.655 250.733ZM380.593 238.887C382.547 238.887 384.501 237.991 386.455 236.2C388.49 234.409 389.874 231.926 390.607 228.751V228.14L396.591 200.174C395.858 197.325 394.189 195.9 391.584 195.9C388.327 195.9 385.396 197.813 382.791 201.64C380.186 205.385 378.15 209.944 376.685 215.317C375.219 220.609 374.487 225.291 374.487 229.361C374.487 233.432 375.056 236.037 376.196 237.177C377.417 238.317 378.883 238.887 380.593 238.887ZM434.252 250.733C430.344 250.733 427.169 249.512 424.727 247.069C422.366 244.627 421.185 240.963 421.185 236.078C421.185 234.043 421.511 231.397 422.162 228.14L430.466 188.939H448.052L439.259 230.46C439.015 231.437 438.893 232.455 438.893 233.513C438.893 237.096 440.114 238.887 442.556 238.887C444.836 238.887 446.79 237.951 448.418 236.078C450.047 234.124 451.349 231.478 452.326 228.14L460.631 188.939H478.216L469.423 230.46C469.098 231.682 468.935 232.984 468.935 234.368C468.935 235.997 469.301 237.177 470.034 237.91C470.848 238.561 472.151 238.887 473.942 238.887C475.245 238.887 476.181 238.805 476.751 238.643C477.402 238.398 477.809 238.236 477.972 238.154C477.646 242.306 476.222 245.441 473.698 247.558C471.174 249.674 468.08 250.733 464.416 250.733C460.997 250.733 458.229 249.715 456.112 247.68C454.077 245.644 452.855 242.795 452.448 239.131C449.68 243.609 446.749 246.662 443.656 248.29C440.643 249.919 437.509 250.733 434.252 250.733ZM534.61 252.198C529.481 252.198 524.962 251.303 521.054 249.512C517.147 247.72 514.134 245.237 512.017 242.062C509.901 238.805 508.842 235.06 508.842 230.827C508.842 227.245 509.575 223.988 511.04 221.057C512.587 218.126 514.623 215.806 517.147 214.096C519.752 212.386 522.601 211.531 525.695 211.531C528.545 211.531 530.946 212.264 532.9 213.73C534.854 215.114 536.076 217.068 536.564 219.592C532.33 219.592 528.952 220.731 526.428 223.011C523.904 225.209 522.642 228.221 522.642 232.048C522.642 235.549 523.7 238.358 525.817 240.474C527.934 242.591 530.743 243.65 534.244 243.65C538.559 243.65 542.1 242.225 544.868 239.375C547.718 236.444 549.143 232.781 549.143 228.384C549.143 224.558 548.084 220.935 545.967 217.515C543.851 214.096 540.675 209.944 536.442 205.059C532.045 200.011 528.707 195.696 526.428 192.114C524.23 188.45 523.131 184.461 523.131 180.146C523.131 175.912 524.311 172.127 526.672 168.789C529.033 165.369 532.29 162.682 536.442 160.728C540.594 158.775 545.275 157.798 550.486 157.798C557.081 157.798 562.332 159.344 566.24 162.438C570.229 165.532 572.224 169.684 572.224 174.895C572.224 178.314 571.369 181.082 569.659 183.199C567.95 185.316 565.711 186.374 562.942 186.374C559.849 186.374 557.366 185.112 555.493 182.588C557.04 181.449 558.261 179.942 559.157 178.07C560.052 176.197 560.5 174.243 560.5 172.208C560.5 169.603 559.727 167.527 558.18 165.98C556.633 164.433 554.516 163.659 551.829 163.659C548.573 163.659 545.886 164.84 543.769 167.201C541.734 169.481 540.716 172.412 540.716 175.994C540.716 179.25 541.652 182.303 543.525 185.153C545.398 187.921 548.328 191.503 552.318 195.9C555.574 199.401 558.18 202.413 560.134 204.937C562.169 207.461 563.879 210.392 565.263 213.73C566.728 216.986 567.461 220.528 567.461 224.354C567.461 229.565 565.996 234.287 563.065 238.52C560.215 242.754 556.266 246.092 551.219 248.535C546.252 250.977 540.716 252.198 534.61 252.198ZM586.428 250.733C582.52 250.733 579.345 249.512 576.903 247.069C574.542 244.627 573.361 240.963 573.361 236.078C573.361 234.043 573.687 231.397 574.338 228.14L582.642 188.939H600.228L591.435 230.46C591.191 231.682 591.069 232.821 591.069 233.88C591.069 237.218 592.29 238.887 594.732 238.887C597.012 238.887 598.966 237.951 600.594 236.078C602.223 234.124 603.525 231.478 604.502 228.14L612.807 188.939H630.392L621.599 230.46C621.274 231.682 621.111 232.984 621.111 234.368C621.111 235.997 621.477 237.177 622.21 237.91C623.024 238.561 624.327 238.887 626.118 238.887C628.398 238.887 630.352 237.91 631.98 235.956C633.69 234.002 635.033 231.397 636.01 228.14H641.139C638.127 236.933 634.382 242.917 629.904 246.092C625.507 249.186 621.07 250.733 616.592 250.733C613.092 250.733 610.283 249.756 608.166 247.802C606.131 245.848 604.909 242.958 604.502 239.131C601.734 243.609 598.803 246.662 595.709 248.29C592.697 249.919 589.603 250.733 586.428 250.733ZM624.882 280.531C621.056 280.531 617.718 279.269 614.868 276.745C611.937 274.302 610.472 271.168 610.472 267.341C610.472 263.841 611.368 260.95 613.159 258.671C614.95 256.391 617.311 254.559 620.242 253.175C623.091 251.873 626.877 250.488 631.599 249.023L646.254 179.291C647.882 171.475 650.732 166.061 654.802 163.049C658.955 160.036 663.514 158.53 668.48 158.53C671.248 158.53 673.813 159.222 676.174 160.606C678.616 161.99 680.407 163.863 681.547 166.224C685.537 161.095 691.113 158.53 698.278 158.53C702.105 158.53 705.443 159.792 708.292 162.316C711.223 164.759 712.688 167.893 712.688 171.719C712.688 173.592 712.566 175.261 712.322 176.727H706.582C706.745 174.935 706.827 173.836 706.827 173.429C706.827 172.127 706.379 171.109 705.483 170.376C704.588 169.643 703.489 169.277 702.186 169.277C698.197 169.277 695.428 172.493 693.882 178.925L691.683 188.939H703.896L702.797 193.824H690.706L676.907 259.77C675.278 267.586 672.388 273 668.236 276.012C664.165 279.024 659.647 280.531 654.68 280.531C648.004 280.531 643.608 277.966 641.491 272.837C637.583 277.966 632.047 280.531 624.882 280.531ZM673.976 188.939L676.052 179.291L676.784 176.116C676.947 174.813 677.029 173.918 677.029 173.429C677.029 172.127 676.581 171.109 675.685 170.376C674.79 169.643 673.691 169.277 672.388 169.277C668.399 169.277 665.631 172.493 664.084 178.925L661.886 188.939H673.976ZM662.618 243.283L672.999 193.824H660.909L650.04 245.481L662.618 243.283ZM651.871 269.662C653.337 269.662 654.721 268.888 656.024 267.341C657.326 265.876 658.344 263.474 659.077 260.136L662.008 246.214L649.429 248.535L647.109 259.77C646.539 262.294 645.765 264.777 644.788 267.219C645.684 268.848 648.045 269.662 651.871 269.662ZM622.806 269.662C624.272 269.662 625.656 268.888 626.958 267.341C628.261 265.876 629.279 263.474 630.012 260.136L631.477 253.053C627.162 254.519 623.824 256.188 621.463 258.06C619.102 260.014 617.921 262.538 617.921 265.632C617.921 266.609 618.41 267.504 619.387 268.318C620.364 269.214 621.504 269.662 622.806 269.662ZM715.474 250.733C709.45 250.733 704.768 249.186 701.43 246.092C698.092 242.917 696.423 237.991 696.423 231.315C696.423 225.698 697.522 219.51 699.721 212.753C701.919 205.995 705.501 200.174 710.467 195.289C715.434 190.323 721.743 187.84 729.396 187.84C738.352 187.84 742.83 191.748 742.83 199.563C742.83 204.123 741.527 208.316 738.922 212.142C736.317 215.969 732.856 219.062 728.541 221.423C724.226 223.703 719.627 225.006 714.742 225.331C714.579 227.774 714.497 229.402 714.497 230.216C714.497 234.205 715.189 236.933 716.573 238.398C717.958 239.782 720.196 240.474 723.29 240.474C727.687 240.474 731.432 239.457 734.525 237.421C737.701 235.386 741.161 232.292 744.906 228.14H749.058C740.021 243.202 728.826 250.733 715.474 250.733ZM715.719 219.469C718.731 219.307 721.58 218.248 724.267 216.294C727.035 214.34 729.234 211.857 730.862 208.845C732.572 205.832 733.426 202.657 733.426 199.319C733.426 195.981 732.409 194.312 730.373 194.312C727.442 194.312 724.552 196.877 721.703 202.006C718.935 207.135 716.94 212.956 715.719 219.469ZM756.36 250.733C752.207 250.733 749.114 249.471 747.078 246.947C745.124 244.423 744.147 241.085 744.147 236.933C744.147 234.816 744.392 232.659 744.88 230.46L752.696 193.824H748.666L749.643 188.939H753.673L757.337 172.086L775.411 169.643C774.678 172.737 774.271 174.569 774.19 175.139C773.62 177.419 772.643 182.018 771.259 188.939H778.586L777.609 193.824H770.282L762.466 230.46C762.059 232.252 761.855 233.676 761.855 234.735C761.855 237.666 763.28 239.131 766.129 239.131C767.595 239.131 768.653 239.009 769.305 238.765C767.676 243.487 765.763 246.662 763.565 248.29C761.367 249.919 758.965 250.733 756.36 250.733Z" fill="#004AAD"/>
<mask id="mask0_5_76" style="mask-type:luminance" maskUnits="userSpaceOnUse" x="9" y="106" width="334" height="144">
<path d="M342.29 106.9H9.28998V249.4H342.29V106.9Z" fill="white"/>
</mask>
<g mask="url(#mask0_5_76)">
<path fill-rule="evenodd" clip-rule="evenodd" d="M326.77 224.98C329.7 222.97 332.48 220.69 335.1 218.2C337.75 215.74 340.18 213.02 342.49 210.17C340.84 213.46 338.85 216.58 336.64 219.58C334.4 222.55 331.89 225.35 329.15 227.94C323.67 233.13 317.2 237.32 310.27 240.52C303.34 243.72 295.94 245.88 288.44 247.24C280.93 248.61 273.31 249.14 265.72 249.08C258.13 248.99 250.56 248.34 243.07 247.11C239.31 246.49 235.58 245.78 231.84 244.84L221.12 241.92C207.2 238.11 193.18 234.62 179.05 231.83C150.83 226.14 122.22 222.53 93.52 222.68C79.19 222.8 64.84 223.86 50.66 226.29C43.57 227.51 36.53 229.1 29.58 231.11C26.1 232.12 22.67 233.27 19.27 234.56C15.86 235.83 12.52 237.28 9.27997 239.01C12.06 236.6 15.19 234.59 18.35 232.66C21.55 230.8 24.85 229.09 28.2 227.49C34.93 224.31 41.95 221.78 49.08 219.61C63.38 215.36 78.19 212.91 93.05 211.71C122.82 209.47 152.76 212.27 181.82 218.18C183.081 218.455 184.344 218.719 185.607 218.984C187.971 219.478 190.337 219.973 192.69 220.54C193.992 220.858 195.296 221.171 196.599 221.485C198.899 222.037 201.199 222.589 203.49 223.17C205.72 223.76 207.935 224.381 210.149 225.002C211.499 225.381 212.848 225.759 214.2 226.13C214.827 226.31 215.455 226.482 216.082 226.654C217.238 226.971 218.393 227.287 219.54 227.65L224.84 229.32L235.16 232.56C238.47 233.52 241.88 234.39 245.32 235.13C252.2 236.59 259.19 237.68 266.2 238.23C280.19 239.36 294.44 238.54 307.81 234.23C314.49 232.08 320.88 229 326.77 224.98ZM237.67 194.88C219.31 188.39 205.37 176.72 193.63 161.68C202.6 160.18 211.86 163.85 216.25 171.08C221.41 179.58 227.08 187.43 236.29 191.99C237.04 192.36 237.88 192.83 237.67 194.88ZM35.45 217.71C35.67 217.92 35.89 218.13 36.08 218.37C36.7296 217.921 37.3793 217.472 38.0296 217.023C42.9855 213.599 47.9755 210.151 53.2 206.5C53.3815 207.868 53.524 208.963 53.6615 210.02C53.721 210.478 53.7796 210.928 53.84 211.39C55.05 211.03 56.28 210.69 57.53 210.36C59.6521 209.223 61.7501 208.094 63.9533 206.908L64.73 206.49C64.805 206.764 64.8772 207.032 64.9481 207.295C65.0664 207.735 65.1812 208.161 65.3 208.58C68.08 208.03 70.97 207.55 73.94 207.13C77.69 203.06 81.86 199.79 89.41 202.15C86.82 196.45 85.76 191.82 87.58 186.48C90.4268 188.759 93.1063 190.906 95.6939 192.98C97.2056 194.191 98.6859 195.377 100.15 196.55C98.24 200.31 95.49 202.99 92.59 205.41C93.63 205.36 94.68 205.31 95.73 205.28C98.31 205.19 101.04 205.14 103.8 205.13L111.27 205.29C115.97 201.5 122.05 200.02 128.48 199.11C129.439 198.974 130.378 198.713 131.317 198.451C132.1 198.234 132.884 198.016 133.68 197.87C133.822 197.844 133.966 197.817 134.111 197.789C135.209 197.58 136.395 197.355 137.34 197.69C146.64 200.98 155.24 205.67 163.14 211.47C165.63 211.93 168.12 212.4 170.61 212.88C161.732 197.653 146.455 189.348 130.209 180.517C128.211 179.43 126.198 178.336 124.18 177.22C132.839 176.452 136.114 171.345 139.425 166.182C139.865 165.495 140.306 164.808 140.76 164.13C142.176 162.023 143.413 159.756 144.653 157.484C148.255 150.883 151.875 144.25 159.94 141.43C160.25 141.33 160.6 141 160.69 140.71C161.997 136.317 165.007 133.275 168.023 130.228C169.853 128.379 171.686 126.527 173.14 124.37C178.79 129.3 181.87 134.85 180.08 142.28C178.414 142.801 176.624 142.838 174.857 142.875C172.041 142.933 169.285 142.991 167.19 145C162.812 149.203 158.679 153.66 154.247 158.44C152.341 160.495 150.38 162.61 148.32 164.79C149.633 164.85 150.819 164.938 151.92 165.02C154.114 165.183 155.965 165.32 157.79 165.16C162.26 164.77 165.13 166.45 167.19 170.42C167.335 170.698 167.478 170.98 167.623 171.265C168.767 173.515 169.97 175.884 172.27 177.18C174.974 178.703 177.642 180.298 180.31 181.893C188.962 187.065 197.618 192.239 207.5 194.96C210.201 195.701 212.449 197.158 214.716 198.628C215.479 199.123 216.244 199.619 217.03 200.09C221.045 202.489 224.345 205.629 227.642 208.767C229.321 210.365 230.999 211.962 232.77 213.46C233.181 211.918 232.826 210.434 232.455 208.887C232.069 207.274 231.666 205.594 232.1 203.71C235.66 207.515 236.738 212.206 237.825 216.929C238.463 219.702 239.103 222.487 240.25 225.11C240.98 225.2 241.27 223.92 241.98 224C242.28 222.19 242.59 221.95 241.98 220.6C240.847 218.07 241.383 215.989 241.828 214.263L241.86 214.14C249.77 210.84 255.28 213.98 260.4 219.16C262.851 221.646 265.589 223.853 268.321 226.053C268.688 226.349 269.054 226.644 269.42 226.94C269.709 226.94 270 226.945 270.292 226.95C270.587 226.955 270.884 226.96 271.18 226.96C271.416 226.96 271.652 226.958 271.887 226.955C272.12 226.953 272.351 226.95 272.58 226.95C270.993 225.038 269.402 223.132 267.811 221.225C262.894 215.333 257.98 209.444 253.22 203.43C246.66 195.12 239.86 187.16 230.15 182.33C228.68 181.59 227.66 180.41 226.88 178.92C225.612 176.498 224.291 174.099 222.969 171.699C220.259 166.776 217.549 161.853 215.29 156.73C211.88 149.01 206.79 143.33 199.28 139.66C192.4 136.29 187.82 130.9 184.81 123.87C183.161 120.012 181.263 116.269 179.272 112.341C178.388 110.599 177.487 108.821 176.58 106.98C174.812 108.901 173.073 110.783 171.355 112.641C168.021 116.249 164.767 119.769 161.54 123.32C160.975 123.942 160.371 124.547 159.766 125.153C156.402 128.525 153.025 131.91 156.28 138.14C149.52 138.44 147.12 142.77 144.65 147.23C143.129 149.979 141.502 152.67 139.876 155.362C138.177 158.173 136.479 160.984 134.9 163.86C133.42 166.56 131.5 168.33 128.57 169.09C122.6 170.65 118.17 174.24 114.49 179.11C112.192 182.148 109.704 185.044 107.203 187.956C106.123 189.214 105.041 190.474 103.97 191.75C99.9932 189.015 96.6876 185.799 93.3937 182.594C90.9311 180.197 88.4751 177.808 85.75 175.63C84.3933 177.135 83.0419 178.612 81.7018 180.077C78.893 183.147 76.1338 186.163 73.48 189.27C71.4 191.71 69.13 193.04 65.85 193.5C65.1216 193.601 64.3661 193.644 63.6033 193.688C61.1927 193.826 58.7094 193.967 56.78 195.95C50.6953 202.189 44.5885 208.406 38.4785 214.627C37.4691 215.654 36.4595 216.682 35.45 217.71ZM240.526 154.693C240.431 154.838 236.589 158.369 236.5 158.5C236.411 158.631 235.238 169.128 236.5 162C237.762 154.872 250.127 156.393 255.269 153.549C256.973 152.607 258.679 151.663 260.25 150.56C265.88 158.61 265.88 158.61 260.75 165.91C259.942 167.063 259.141 168.222 258.339 169.382C257.701 170.305 257.062 171.228 256.42 172.15C262.526 169.62 267.609 171.515 272.574 173.365C274.773 174.185 276.949 174.996 279.18 175.41C279.305 177.779 282.334 180.188 282 182.5C281.295 187.372 284 185 280.5 194C280.432 191.192 281.855 192.616 282.86 190.974C283.036 190.687 283.212 190.401 283.38 190.11C284.928 187.436 287.152 187.674 289.355 187.909C289.912 187.969 290.467 188.028 291.01 188.04C293.617 188.097 295.556 189.004 297.5 191C298.482 192.009 299.444 193.635 299.5 194C300.097 197.988 295.121 200.81 295.676 204.813C295.919 206.572 296.163 208.332 296.41 210.09C296.65 210.13 296.91 210.18 297.15 210.23C297.55 209.006 297.95 207.783 298.351 206.558C299.463 203.157 300.581 199.739 301.72 196.24C307.42 201.37 330.62 209.66 336.82 208.08C312.86 200.5 297.09 184.85 285.63 164.39C284.19 161.83 281.79 161.3 279.4 160.78C274.24 159.65 270.53 157.02 267.91 152.25C266.129 149.011 263.974 145.975 261.647 142.696C260.59 141.208 259.498 139.67 258.39 138.04C254.43 145.49 249.95 153.6 241.5 154.5C240.837 154.577 241.063 153.868 240.526 154.693ZM232.78 213.47C232.78 213.51 232.77 213.55 232.76 213.58L232.82 213.51C232.8 213.49 232.8 213.48 232.78 213.47Z" fill="#004AAD"/>
</g>
<mask id="mask1_5_76" style="mask-type:luminance" maskUnits="userSpaceOnUse" x="169" y="34" width="174" height="222">
<path d="M244.088 34L169 215.114L267.369 255.897L342.457 74.7828L244.088 34Z" fill="white"/>
</mask>
<g mask="url(#mask1_5_76)">
<mask id="mask2_5_76" style="mask-type:luminance" maskUnits="userSpaceOnUse" x="169" y="34" width="174" height="222">
<path d="M244.088 34L169 215.114L267.369 255.897L342.457 74.7828L244.088 34Z" fill="white"/>
</mask>
<g mask="url(#mask2_5_76)">
<path d="M274.489 65.5421C281.779 54.8771 276.192 47.486 276.192 47.486C271.916 47.0266 267.465 48.9642 264.884 52.3967C262.604 55.4283 261.828 59.3118 261.318 63.07C260.909 66.0682 260.617 69.1416 259.723 72.0145C261.201 56.2969 253.125 51.1941 237.683 49.4319C236.94 71.5051 252.198 67.0119 256.909 73.9437C256.458 73.6514 255.956 73.4259 255.472 73.2005C253.192 72.1482 250.879 71.0792 248.415 70.528C246.536 70.1104 244.381 70.4862 242.552 71.0457C236.597 72.8914 231.653 77.6268 229.298 83.3977C233.507 85.2518 238.234 85.5775 242.828 85.3603C246.277 85.2017 249.835 84.6922 253.025 83.4395C251.33 88.9014 248.682 96.2341 244.44 103.416L253.894 107.333C253.894 107.333 257.802 96.9857 262.279 88.25C268.375 95.3321 275.591 96.1339 275.591 96.1339C275.983 91.9748 275.892 87.0223 274.422 83.0887C273.896 81.6689 273.202 80.0571 272.326 78.5956C278.648 81.7608 287.5 79.4641 292.478 74.6703C288.494 72.7161 285.563 69.0581 281.596 67.0787C279.5 65.9179 276.986 65.4251 274.489 65.5421ZM310.233 140.272C310.233 140.28 310.225 140.28 310.225 140.289C310.751 140.272 311.269 140.28 311.795 140.33C309.874 142.026 308.872 144.281 307.82 146.619C306.759 148.958 305.899 151.38 304.629 153.609C302.45 157.443 299.101 160.6 295.142 162.537L290.507 159.865C289.772 156.983 290.874 153.601 292.035 150.995C294.482 145.5 297.664 140.33 301.489 135.679C301.489 136.246 301.489 136.773 301.481 137.29C303.352 134.543 305.097 131.712 306.559 128.722C307.369 127.068 308.095 125.364 309.123 123.828C309.348 123.494 309.599 123.16 309.966 123.001C310.3 122.859 310.684 122.892 311.052 122.926C312.697 123.084 314.559 123.393 315.436 124.796C315.82 125.406 315.937 126.141 316.113 126.843C316.405 128.02 316.873 129.148 317.482 130.192C317.741 130.634 318.034 131.068 318.167 131.561C318.543 132.948 317.574 134.359 316.413 135.194C315.253 136.029 313.858 136.505 312.73 137.391C311.712 138.159 310.968 139.22 310.233 140.272Z" fill="#A096EF"/>
</g>
<mask id="mask3_5_76" style="mask-type:luminance" maskUnits="userSpaceOnUse" x="169" y="34" width="174" height="222">
<path d="M244.088 34L169 215.114L267.369 255.897L342.457 74.7828L244.088 34Z" fill="white"/>
</mask>
<g mask="url(#mask3_5_76)">
<path d="M306.032 153.376C301.138 154.403 296.553 157.159 293.238 160.95C293.271 160.742 293.296 160.541 293.313 160.332C293.43 158.821 293.104 157.317 292.787 155.839C292.386 153.977 291.952 152.198 291.559 150.336C290.816 151.922 290.131 153.534 289.513 155.163C288.561 157.677 287.751 160.383 288.294 163.013C288.436 163.723 288.711 164.441 289.196 164.959C285.17 170.622 281.086 175.699 277.194 180.176C278.096 175.399 277.336 170.313 275.065 166.02C272.66 170.296 274.572 176.209 276.702 180.744C272.367 185.679 268.275 189.847 264.751 193.204C263.03 194.849 261.285 196.445 259.539 197.99C262.471 192.787 263.08 186.281 261.017 180.668C256.165 184.986 254.01 192.954 257.852 199.468C249.442 206.709 241.049 212.563 234.451 215.72C234.017 215.929 233.833 216.455 234.042 216.889C234.142 217.09 234.301 217.24 234.501 217.324C234.727 217.415 234.986 217.415 235.219 217.307C241.834 214.142 250.202 208.337 258.595 201.155C264.951 203.418 272.509 201.965 277.52 197.447C272.05 195.701 266.062 196.278 261.744 198.407C263.164 197.138 264.575 195.835 265.978 194.499C269.594 191.049 273.82 186.748 278.289 181.637C280.811 182.08 283.5 181.47 285.788 180.276C288.477 178.865 290.699 176.71 292.753 174.472C290.156 173.837 286.097 174.781 282.715 176.409C285.412 173.102 288.16 169.527 290.883 165.686C294.182 165.084 297.372 163.915 300.278 162.245C301.255 161.677 302.216 161.051 303.001 160.232C304.705 158.361 305.398 155.814 306.032 153.376ZM239.203 222.017C234.1 221.992 229.023 223.136 224.296 225.049C222.049 225.951 219.853 227.07 217.94 228.565C217.656 228.79 216.445 229.918 215.443 231.079C216.353 218.192 199.75 201.188 199.75 201.188C196.869 203.836 196.518 213.164 202.648 217.975C207.567 222.009 212.679 226.385 214.157 232.874C213.931 233.333 213.906 233.684 214.215 233.81C214.7 234.01 215.126 233.684 215.526 233.333C216.854 232.164 218.241 231.012 219.869 230.344C221.899 229.508 224.154 229.475 226.35 229.525C227.745 229.559 229.148 229.617 230.534 229.801C234.251 230.31 237.758 231.763 241.408 232.624C245.058 233.475 249.1 233.676 252.357 231.814C250.845 224.765 244.306 222.042 239.203 222.017ZM207.459 178.247C213.789 180.368 217.013 186.598 218.416 193.438C219.443 185.713 220.796 178.071 222.467 170.613C216.671 165.243 217.882 157.443 220.42 153.384C222.725 156.574 223.928 160.508 223.928 164.441C225.841 156.85 228.062 149.517 230.593 142.468C226.826 137.09 227.929 130.576 231.244 126.458C232.697 129.223 233.357 132.371 233.24 135.486C235.704 129.298 238.418 123.343 241.366 117.648C236.305 111.158 247.346 93.4113 249.868 87.2478C252.106 90.0539 251.421 94.8644 249.968 99.6332C255.28 93.7537 259.556 93.311 262.103 94.188C257.568 101.696 252.632 120.687 242.786 118.909C242.769 118.9 242.753 118.884 242.727 118.875C234.961 134.042 228.847 151.129 224.621 169.218C227.027 165.043 232.138 159.522 235.729 159.364C235.236 162.387 233.766 165.235 231.595 167.389C229.565 169.411 226.926 170.797 224.12 171.356C222.926 176.685 221.899 182.097 221.038 187.567C223.026 182.122 226.066 179.967 228.321 178.338C228.104 181.988 227.411 185.638 225.932 188.978C224.554 192.102 222.467 194.941 219.736 196.979C218.5 207.21 217.857 217.591 217.848 227.988C217.848 228.473 217.456 228.865 216.971 228.865C216.854 228.865 216.737 228.84 216.637 228.799C216.32 228.665 216.094 228.356 216.094 227.988C216.103 217.282 216.796 206.4 218.132 195.651C210.524 192.144 205.413 184.017 207.459 178.247Z" fill="#004AAD"/>
</g>
<mask id="mask4_5_76" style="mask-type:luminance" maskUnits="userSpaceOnUse" x="169" y="34" width="174" height="222">
<path d="M244.088 34L169 215.114L267.369 255.897L342.457 74.7828L244.088 34Z" fill="white"/>
</mask>
<g mask="url(#mask4_5_76)">
<path d="M313.081 131.152C313.081 130.375 312.856 129.657 312.497 128.972C311.954 127.937 310.801 127.11 310.409 126.007C310.409 125.607 310.425 125.197 310.484 124.796C310.5 124.654 310.275 124.588 310.242 124.73C310.15 125.055 310.1 125.381 310.075 125.698C310.05 125.723 310.041 125.765 310.05 125.807C310.05 125.824 310.058 125.84 310.058 125.857C309.991 126.951 310.217 128.029 310.308 129.173C310.484 131.236 310.242 132.948 309.381 134.81C308.028 137.741 305.949 140.598 303.343 142.535C303.243 142.61 303.335 142.777 303.452 142.727C306.149 141.566 308.028 138.485 309.34 135.979C309.983 134.752 310.567 133.432 310.768 132.046C311.018 130.3 310.592 128.58 310.45 126.859C310.943 127.661 311.737 128.321 312.154 129.173C313.373 131.653 311.945 133.516 310.851 135.67C310.801 135.77 310.951 135.846 311.018 135.77C312.104 134.551 313.089 132.856 313.081 131.152ZM270.689 66.4524C272.568 64.0889 274.129 61.0823 275.048 58.2094C275.09 58.0758 274.914 58.0006 274.848 58.1259C273.344 60.8652 272.292 63.7047 270.496 66.3021C270.413 66.4357 270.588 66.5777 270.689 66.4524ZM270.254 60.9237C271.624 58.2177 272.751 55.3448 273.67 52.4552C273.712 52.3299 273.528 52.2547 273.478 52.38C272.392 55.2279 271.248 58.0424 270.121 60.8735C270.096 60.9571 270.212 60.9988 270.254 60.9237ZM267.991 72.2901C270.739 71.1126 273.152 70.8036 276.117 70.9622C276.226 70.9706 276.284 70.8036 276.167 70.7702C273.495 70.0603 270.221 70.6616 267.874 72.0897C267.757 72.1565 267.874 72.3403 267.991 72.2901ZM264.216 76.7666C264.099 76.6664 263.966 76.8501 264.074 76.9503C267.933 80.8171 270.288 85.0096 271.716 90.2711C271.741 90.3629 271.874 90.3462 271.866 90.2544C271.039 85.1683 268.125 80.1072 264.216 76.7666ZM253.793 74.996C250.929 73.6598 248.315 73.3257 245.3 74.3279C242.277 75.3385 239.612 77.0088 237.257 79.1551C237.182 79.2219 237.274 79.3556 237.357 79.2888C239.379 77.5349 241.633 76.1235 244.131 75.1464C245.542 74.5868 247.003 74.1275 248.523 74.0857C250.336 74.0356 251.998 74.687 253.718 75.1798C253.835 75.2048 253.902 75.0545 253.793 74.996ZM256.307 67.5464C256.374 67.6717 256.558 67.5966 256.516 67.4629C254.261 60.4894 247.964 56.9316 242.343 52.8393C242.26 52.7725 242.151 52.9061 242.243 52.973C244.966 55.1026 247.73 57.1821 250.444 59.3201C253.384 61.6419 254.57 64.3561 256.307 67.5464ZM243.713 66.3605C247.914 69.4673 253.25 69.9851 256.157 73.0167C256.157 73.0167 255.054 71.1042 252.365 68.7073C249.676 66.3104 245.985 67.7719 243.713 66.3605ZM265.653 73.8352C264.684 73.8101 263.682 74.0273 262.596 74.4532C262.354 74.5451 262.111 74.6536 261.853 74.7706C261.402 74.9793 260.859 75.1798 260.299 75.4136C259.372 75.8145 258.395 76.3323 257.719 77.2092C256.925 74.971 256.842 72.3904 258.562 70.695C259.138 71.4299 259.731 72.4321 260.057 73.4427C260.132 71.6053 261.118 69.8348 262.704 68.866C263.231 69.9016 263.414 71.0959 263.281 72.2484C264.191 71.3381 265.369 70.6866 266.713 70.3359C266.429 71.7222 266.154 72.7495 265.653 73.8352Z" fill="#6AB0AB"/>
</g>
</g>
</svg>
